<svg width="1920" height="1080" viewBox="0 0 1920 1080" xmlns="http://www.w3.org/2000/svg">
  <rect width="1920" height="1080" fill="#09090B"/>
  
  <radialGradient id="bg-grad-6" cx="50%" cy="100%" r="80%">
    <stop offset="0%" stop-color="#1e1b4b" stop-opacity="0.3"/>
    <stop offset="100%" stop-color="#09090B" stop-opacity="1"/>
  </radialGradient>
  <rect width="1920" height="1080" fill="url(#bg-grad-6)"/>

  <defs>
    <symbol id="compass" viewBox="0 0 640 640">
      <path d="M163.3 320.1L232.7 200.2C227.1 188 223.9 174.4 223.9 160C223.9 107 266.9 64 319.9 64C372.9 64 415.9 107 415.9 160C415.9 174.3 412.8 187.9 407.1 200.2L451.5 276.9C428.4 302.9 397.8 322 363.1 330.7L320 255.9L251.9 373.5C273.4 380.3 296.2 384 320 384C390.7 384 453.8 351.3 494.9 300C506 286.2 526.1 284 539.9 295C553.7 306 555.9 326.2 544.9 340C492.2 405.8 411 448 320.1 448C284.7 448 250.7 441.6 219.4 429.9L162.7 527.7C158 535.8 151 542.4 142.6 546.6L87.2 574.3C82.2 576.8 76.3 576.5 71.6 573.6C66.9 570.7 64 565.5 64 560L64 504.6C64 496.2 66.2 487.9 70.5 480.5L130.5 376.8C117.7 365.6 105.9 353.3 95.2 340C84.1 326.2 86.4 306.1 100.2 295C114 283.9 134.1 286.2 145.2 300C150.9 307.1 157 313.8 163.4 320.1zM445.1 471.9C477.6 458.9 507.5 440.9 534 419L569.6 480.5C573.8 487.8 576.1 496.1 576.1 504.6L576.1 560C576.1 565.5 573.2 570.7 568.5 573.6C563.8 576.5 557.9 576.8 552.9 574.3L497.5 546.6C489.1 542.4 482.1 535.8 477.4 527.7L445.1 471.9zM320 192C337.7 192 352 177.7 352 160C352 142.3 337.7 128 320 128C302.3 128 288 142.3 288 160C288 177.7 302.3 192 320 192z"/>
    </symbol>
  </defs>

  <!-- Pasywne centralne umieszczenie, idealne na Cover prezentacji -->
  <g transform="translate(960, 540) rotate(0) translate(-750, -750)">
    <use href="#compass" width="1500" height="1500" fill="#4c1d95" opacity="0.03" />
  </g>
  <g transform="translate(960, 540) rotate(180) translate(-650, -650)">
    <use href="#compass" width="1300" height="1300" fill="#5b21b6" opacity="0.02" />
  </g>
  
  <g transform="translate(100, 900) rotate(15) translate(-150, -150)">
    <use href="#compass" width="300" height="300" fill="#7c3aed" opacity="0.04" />
  </g>
  <g transform="translate(1820, 900) rotate(-15) translate(-150, -150)">
    <use href="#compass" width="300" height="300" fill="#7c3aed" opacity="0.04" />
  </g>

</svg>
